<?xml version="1.0" encoding="utf-8"?>
<!-- Generator: Adobe Illustrator 16.0.3, SVG Export Plug-In . SVG Version: 6.00 Build 0)  -->
<!DOCTYPE svg PUBLIC "-//W3C//DTD SVG 1.1//EN" "http://www.w3.org/Graphics/SVG/1.1/DTD/svg11.dtd" [
	<!ENTITY ns_extend "http://ns.adobe.com/Extensibility/1.0/">
	<!ENTITY ns_ai "http://ns.adobe.com/AdobeIllustrator/10.0/">
	<!ENTITY ns_graphs "http://ns.adobe.com/Graphs/1.0/">
	<!ENTITY ns_vars "http://ns.adobe.com/Variables/1.0/">
	<!ENTITY ns_imrep "http://ns.adobe.com/ImageReplacement/1.0/">
	<!ENTITY ns_sfw "http://ns.adobe.com/SaveForWeb/1.0/">
	<!ENTITY ns_custom "http://ns.adobe.com/GenericCustomNamespace/1.0/">
	<!ENTITY ns_adobe_xpath "http://ns.adobe.com/XPath/1.0/">
]>
<svg version="1.1" id="Layer_1" xmlns:x="&ns_extend;" xmlns:i="&ns_ai;" xmlns:graph="&ns_graphs;"
	 xmlns="http://www.w3.org/2000/svg" xmlns:xlink="http://www.w3.org/1999/xlink" x="0px" y="0px" width="127px" height="139.443px"
	 viewBox="0 0 127 139.443" enable-background="new 0 0 127 139.443" xml:space="preserve">
<metadata>
	<sfw  xmlns="&ns_sfw;">
		<slices></slices>
		<sliceSourceBounds  height="910.106" width="795.78" y="-956" x="58.882" bottomLeftOrigin="true"></sliceSourceBounds>
	</sfw>
</metadata>
<g>
	<g>
		<path fill="#4D4D4D" d="M105.968,1H13.95C9.567,1,6,4.565,6,8.949v113.67c0,4.384,3.566,7.949,7.95,7.949h46.009
			c1.401,0,2.538-1.136,2.538-2.537c0-1.4-1.136-2.537-2.538-2.537H13.95c-1.585,0-2.875-1.29-2.875-2.875V8.949
			c0-1.586,1.29-2.876,2.875-2.876h92.018c1.586,0,2.876,1.29,2.876,2.876v63.899c0,1.401,1.137,2.537,2.537,2.537
			s2.537-1.136,2.537-2.537V8.949C113.918,4.565,110.352,1,105.968,1"/>
	</g>
	<g>
		<path fill="#FFFFFF" d="M59.959,131.568H13.95c-4.935,0-8.95-4.015-8.95-8.949V8.949C5,4.015,9.015,0,13.95,0h92.018
			c4.935,0,8.95,4.015,8.95,8.949v63.899c0,1.95-1.587,3.537-3.537,3.537s-3.537-1.587-3.537-3.537V8.949
			c0-1.034-0.842-1.876-1.876-1.876H13.95c-1.034,0-1.875,0.842-1.875,1.876v113.67c0,1.034,0.841,1.875,1.875,1.875h46.009
			c1.951,0,3.538,1.587,3.538,3.537S61.91,131.568,59.959,131.568z M13.95,2C10.118,2,7,5.117,7,8.949v113.67
			c0,3.832,3.118,6.949,6.95,6.949h46.009c0.848,0,1.538-0.689,1.538-1.537s-0.69-1.537-1.538-1.537H13.95
			c-2.137,0-3.875-1.738-3.875-3.875V8.949c0-2.138,1.738-3.876,3.875-3.876h92.018c2.137,0,3.876,1.738,3.876,3.876v63.899
			c0,0.848,0.689,1.537,1.537,1.537s1.537-0.689,1.537-1.537V8.949c0-3.832-3.118-6.949-6.95-6.949H13.95z"/>
	</g>
	<g>
		<path fill="#4D4D4D" d="M101,139.443c-14.336,0-26-11.663-26-26s11.664-26,26-26s26,11.663,26,26S115.336,139.443,101,139.443z
			 M101,90.443c-12.682,0-23,10.317-23,23s10.318,23,23,23s23-10.317,23-23S113.682,90.443,101,90.443z"/>
	</g>
	<g>
		<path fill="#4D4D4D" d="M112.18,117.803h-12c-0.829,0-1.5-0.672-1.5-1.5V105.6c0-0.828,0.671-1.5,1.5-1.5s1.5,0.672,1.5,1.5v9.203
			h10.5c0.829,0,1.5,0.672,1.5,1.5S113.008,117.803,112.18,117.803z"/>
	</g>
	<g>
		<path fill="#4D4D4D" d="M18.5,103.006h-17c-0.829,0-1.5-0.672-1.5-1.5s0.671-1.5,1.5-1.5h17c0.829,0,1.5,0.672,1.5,1.5
			S19.329,103.006,18.5,103.006z"/>
	</g>
	<g>
		<path fill="#4D4D4D" d="M18.5,110.865h-17c-0.829,0-1.5-0.672-1.5-1.5s0.671-1.5,1.5-1.5h17c0.829,0,1.5,0.672,1.5,1.5
			S19.329,110.865,18.5,110.865z"/>
	</g>
	<g>
		<path fill="#4D4D4D" d="M18.5,63.35h-17c-0.829,0-1.5-0.672-1.5-1.5s0.671-1.5,1.5-1.5h17c0.829,0,1.5,0.672,1.5,1.5
			S19.329,63.35,18.5,63.35z"/>
	</g>
	<g>
		<path fill="#4D4D4D" d="M18.5,71.209h-17c-0.829,0-1.5-0.672-1.5-1.5s0.671-1.5,1.5-1.5h17c0.829,0,1.5,0.672,1.5,1.5
			S19.329,71.209,18.5,71.209z"/>
	</g>
	<g>
		<path fill="#4D4D4D" d="M18.5,23.693h-17c-0.829,0-1.5-0.672-1.5-1.5s0.671-1.5,1.5-1.5h17c0.829,0,1.5,0.672,1.5,1.5
			S19.329,23.693,18.5,23.693z"/>
	</g>
	<g>
		<path fill="#4D4D4D" d="M18.5,31.553h-17c-0.829,0-1.5-0.672-1.5-1.5s0.671-1.5,1.5-1.5h17c0.829,0,1.5,0.672,1.5,1.5
			S19.329,31.553,18.5,31.553z"/>
	</g>
	<g>
		<path fill="#4D4D4D" d="M34.5,127.53c-0.829,0-1.5-0.672-1.5-1.5v-121c0-0.828,0.671-1.5,1.5-1.5S36,4.202,36,5.03v121
			C36,126.858,35.329,127.53,34.5,127.53z"/>
	</g>
</g>
</svg>
