<?xml version="1.0" encoding="UTF-8"?>
<!-- Generator: Adobe Illustrator 16.0.3, SVG Export Plug-In . SVG Version: 6.00 Build 0)  -->
<!DOCTYPE svg PUBLIC "-//W3C//DTD SVG 1.1//EN" "http://www.w3.org/Graphics/SVG/1.1/DTD/svg11.dtd">
<svg version="1.1" id="Layer_1" xmlns:x="http://ns.adobe.com/Extensibility/1.0/" xmlns:i="http://ns.adobe.com/AdobeIllustrator/10.0/" xmlns:graph="http://ns.adobe.com/Graphs/1.0/" xmlns="http://www.w3.org/2000/svg" xmlns:xlink="http://www.w3.org/1999/xlink" x="0px" y="0px" width="182.305px" height="145.091px" viewBox="0 0 182.305 145.091" enable-background="new 0 0 182.305 145.091" xml:space="preserve">
<metadata>
	<sfw xmlns="http://ns.adobe.com/SaveForWeb/1.0/">
		<slices/>
		<sliceSourceBounds height="416.803" width="661.262" y="-466.273" x="61.597" bottomLeftOrigin="true"/>
	</sfw>
</metadata>
<g>
	<g>
		<path fill="#4D4D4D" d="M180.805,145.085H1.5c-0.829,0-1.5-0.671-1.5-1.5s0.671-1.5,1.5-1.5h179.305c0.829,0,1.5,0.671,1.5,1.5    S181.633,145.085,180.805,145.085z"/>
	</g>
	<g>
		<path fill="#4D4D4D" d="M141.399,145.091H40.905c-0.421,0-0.824-0.177-1.108-0.489s-0.424-0.728-0.386-1.147l10-109.494    c0.07-0.772,0.718-1.364,1.494-1.364h15.311v-7.66C66.216,11.187,77.403,0,91.153,0c13.749,0,24.935,11.187,24.935,24.937v7.66    h15.312c0.775,0,1.423,0.591,1.494,1.364l10,109.494c0.039,0.419-0.102,0.836-0.386,1.147S141.821,145.091,141.399,145.091z     M42.548,142.091h97.208L130.03,35.597h-13.942v8.04c4.528,0.722,8,4.654,8,9.383c0,5.238-4.262,9.499-9.5,9.499    s-9.5-4.261-9.5-9.499c0-4.729,3.472-8.661,8-9.383v-8.04H69.216v8.04c4.529,0.721,8.001,4.654,8.001,9.383    c0,5.238-4.262,9.499-9.5,9.499s-9.5-4.261-9.5-9.499c0-4.728,3.471-8.661,7.999-9.382v-8.041H52.274L42.548,142.091z     M113.088,46.693c-2.863,0.679-5,3.258-5,6.326c0,3.583,2.916,6.499,6.5,6.499s6.5-2.916,6.5-6.499c0-3.068-2.137-5.647-5-6.326    v4.325c0,0.829-0.671,1.5-1.5,1.5s-1.5-0.671-1.5-1.5V46.693z M66.216,46.693c-2.863,0.68-4.999,3.258-4.999,6.326    c0,3.583,2.916,6.499,6.5,6.499s6.5-2.916,6.5-6.499c0-3.069-2.137-5.648-5.001-6.327v4.326c0,0.829-0.671,1.5-1.5,1.5    s-1.5-0.671-1.5-1.5V46.693z M69.216,32.597h43.872v-7.66C113.088,12.841,103.248,3,91.153,3    c-12.096,0-21.937,9.841-21.937,21.937V32.597z"/>
	</g>
</g>
</svg>