<?xml version="1.0" encoding="UTF-8"?>
<!-- Generator: Adobe Illustrator 16.0.3, SVG Export Plug-In . SVG Version: 6.00 Build 0)  -->
<!DOCTYPE svg PUBLIC "-//W3C//DTD SVG 1.1//EN" "http://www.w3.org/Graphics/SVG/1.1/DTD/svg11.dtd">
<svg version="1.1" id="Layer_1" xmlns:x="http://ns.adobe.com/Extensibility/1.0/" xmlns:i="http://ns.adobe.com/AdobeIllustrator/10.0/" xmlns:graph="http://ns.adobe.com/Graphs/1.0/" xmlns="http://www.w3.org/2000/svg" xmlns:xlink="http://www.w3.org/1999/xlink" x="0px" y="0px" width="156.475px" height="116.44px" viewBox="0 0 156.475 116.44" enable-background="new 0 0 156.475 116.44" xml:space="preserve">
<metadata>
	<sfw xmlns="http://ns.adobe.com/SaveForWeb/1.0/">
		<slices/>
		<sliceSourceBounds height="498.023" width="530.818" y="-928.58" x="273.137" bottomLeftOrigin="true"/>
	</sfw>
</metadata>
<g>
	<g>
		<path fill="#FFFFFF" d="M111.671,20.12h-90.37c0,0-9.358,0-9.358,9.44v55.971L2,114.44l26.32-8.85h83.351c0,0,9.358,0,9.358-9.439    V29.561C121.029,29.561,121.029,20.12,111.671,20.12"/>
	</g>
	<g>
		<path fill="#4D4D4D" d="M2,116.44c-0.524,0-1.038-0.206-1.419-0.591c-0.537-0.54-0.72-1.339-0.472-2.06l9.834-28.593V29.561    c0-9.05,7.43-11.44,11.358-11.44h90.37c8.984,0,11.358,7.483,11.358,11.44v66.591c0,9.049-7.43,11.439-11.358,11.439H28.647    l-26.01,8.745C2.429,116.406,2.213,116.44,2,116.44z M21.301,22.12c-0.745,0.008-7.358,0.279-7.358,7.44v55.971    c0,0.222-0.037,0.441-0.109,0.65L5.212,111.25l22.471-7.555c0.205-0.069,0.42-0.104,0.637-0.104h83.351    c0.745-0.008,7.358-0.278,7.358-7.439V29.561c-0.007-0.753-0.274-7.44-7.358-7.44H21.301z"/>
	</g>
	<g>
		<path fill="#FFFFFF" d="M44.784,2h90.37c0,0,9.357,0,9.357,9.44v55.971l9.943,28.909l-26.32-8.849H44.784c0,0-9.358,0-9.358-9.44    V11.44C35.426,11.44,35.426,2,44.784,2"/>
	</g>
	<g>
		<path fill="#4D4D4D" d="M154.455,98.32c-0.213,0-0.428-0.034-0.637-0.104l-26.01-8.744H44.784c-3.929,0-11.358-2.391-11.358-11.44    V11.44C33.426,7.483,35.8,0,44.784,0h90.37c3.928,0,11.357,2.391,11.357,11.44v55.637l9.747,28.337    c0.139,0.271,0.217,0.58,0.217,0.906c0,1.104-0.896,2-2,2C154.466,98.32,154.461,98.32,154.455,98.32z M135.145,4h-90.36    c-7.084,0-7.351,6.688-7.358,7.449v66.582c0,7.231,6.605,7.44,7.358,7.44h83.351c0.217,0,0.432,0.035,0.637,0.104l22.471,7.555    l-8.622-25.069c-0.072-0.209-0.109-0.429-0.109-0.65V11.44C142.512,4.279,135.899,4.008,135.145,4z"/>
	</g>
	<g>
		<path fill="#4D4D4D" d="M80.048,64.576H58.739c-1.104,0-2-0.896-2-2s0.896-2,2-2h21.309c1.104,0,2,0.896,2,2    S81.152,64.576,80.048,64.576z M115.273,45.749H58.739c-1.104,0-2-0.896-2-2s0.896-2,2-2h56.535c1.104,0,2,0.896,2,2    S116.378,45.749,115.273,45.749z M102.243,26.922H58.739c-1.104,0-2-0.896-2-2s0.896-2,2-2h43.504c1.104,0,2,0.896,2,2    S103.348,26.922,102.243,26.922z"/>
	</g>
</g>
</svg>