<?xml version="1.0" encoding="utf-8"?>
<!-- Generator: Adobe Illustrator 16.0.3, SVG Export Plug-In . SVG Version: 6.00 Build 0)  -->
<!DOCTYPE svg PUBLIC "-//W3C//DTD SVG 1.1//EN" "http://www.w3.org/Graphics/SVG/1.1/DTD/svg11.dtd" [
	<!ENTITY ns_extend "http://ns.adobe.com/Extensibility/1.0/">
	<!ENTITY ns_ai "http://ns.adobe.com/AdobeIllustrator/10.0/">
	<!ENTITY ns_graphs "http://ns.adobe.com/Graphs/1.0/">
	<!ENTITY ns_vars "http://ns.adobe.com/Variables/1.0/">
	<!ENTITY ns_imrep "http://ns.adobe.com/ImageReplacement/1.0/">
	<!ENTITY ns_sfw "http://ns.adobe.com/SaveForWeb/1.0/">
	<!ENTITY ns_custom "http://ns.adobe.com/GenericCustomNamespace/1.0/">
	<!ENTITY ns_adobe_xpath "http://ns.adobe.com/XPath/1.0/">
]>
<svg version="1.1" id="Layer_1" xmlns:x="&ns_extend;" xmlns:i="&ns_ai;" xmlns:graph="&ns_graphs;"
	 xmlns="http://www.w3.org/2000/svg" xmlns:xlink="http://www.w3.org/1999/xlink" x="0px" y="0px" width="189px" height="149.094px"
	 viewBox="5 0 189 149.094" enable-background="new 5 0 189 149.094" xml:space="preserve">
<metadata>
	<sfw  xmlns="&ns_sfw;">
		<slices></slices>
		<sliceSourceBounds  height="149.094" width="189" y="288.953" x="385.5" bottomLeftOrigin="true"></sliceSourceBounds>
	</sfw>
</metadata>
<g>
	<g>
		<path fill="#4D4D4D" d="M184.5,149.094h-170c-5.238,0-9.5-4.262-9.5-9.5V9.5C5,4.262,9.262,0,14.5,0h170
			c5.238,0,9.5,4.262,9.5,9.5v130.094C194,144.832,189.738,149.094,184.5,149.094z M14.5,3C10.916,3,8,5.916,8,9.5v130.094
			c0,3.584,2.916,6.5,6.5,6.5h170c3.584,0,6.5-2.916,6.5-6.5V9.5c0-3.584-2.916-6.5-6.5-6.5H14.5z"/>
	</g>
	<g>
		<path fill="#4D4D4D" d="M192.5,47.547H6.5c-0.829,0-1.5-0.671-1.5-1.5s0.671-1.5,1.5-1.5h186c0.828,0,1.5,0.671,1.5,1.5
			S193.328,47.547,192.5,47.547z"/>
	</g>
	<g>
		<path fill="#4D4D4D" d="M74.5,149.047c-0.829,0-1.5-0.672-1.5-1.5V46.714c0-0.829,0.671-1.5,1.5-1.5s1.5,0.671,1.5,1.5v100.833
			C76,148.375,75.329,149.047,74.5,149.047z"/>
	</g>
	<g>
		<path fill="#4D4D4D" d="M134.5,149.047c-0.828,0-1.5-0.672-1.5-1.5V46.714c0-0.829,0.672-1.5,1.5-1.5s1.5,0.671,1.5,1.5v100.833
			C136,148.375,135.328,149.047,134.5,149.047z"/>
	</g>
	<g>
		<path fill="#4D4D4D" d="M109.678,32.547h-9.705c-2.287,0-4.147-1.86-4.147-4.147v-9.706c0-2.287,1.86-4.147,4.147-4.147h9.705
			c2.287,0,4.147,1.86,4.147,4.147V28.4C113.825,30.687,111.965,32.547,109.678,32.547z M99.973,17.547
			c-0.633,0-1.147,0.515-1.147,1.147V28.4c0,0.632,0.515,1.147,1.147,1.147h9.705c0.633,0,1.147-0.515,1.147-1.147v-9.706
			c0-0.632-0.515-1.147-1.147-1.147H99.973z"/>
	</g>
	<g>
		<path fill="#4D4D4D" d="M123.678,139.047H85.972c-2.287,0-4.147-1.86-4.147-4.146v-6.707c0-2.286,1.86-4.146,4.147-4.146h37.706
			c2.287,0,4.147,1.86,4.147,4.146v6.707C127.825,137.187,125.965,139.047,123.678,139.047z M85.972,127.047
			c-0.632,0-1.147,0.515-1.147,1.146v6.707c0,0.632,0.515,1.146,1.147,1.146h37.706c0.633,0,1.147-0.515,1.147-1.146v-6.707
			c0-0.632-0.515-1.146-1.147-1.146H85.972z"/>
	</g>
	<g>
		<path fill="#4D4D4D" d="M182.687,139.047H144.98c-2.286,0-4.146-1.86-4.146-4.146v-6.707c0-2.286,1.86-4.146,4.146-4.146h37.706
			c2.287,0,4.147,1.86,4.147,4.146v6.707C186.834,137.187,184.974,139.047,182.687,139.047z M144.98,127.047
			c-0.632,0-1.146,0.515-1.146,1.146v6.707c0,0.632,0.515,1.146,1.146,1.146h37.706c0.633,0,1.147-0.515,1.147-1.146v-6.707
			c0-0.632-0.515-1.146-1.147-1.146H144.98z"/>
	</g>
	<g>
		<path fill="#4D4D4D" d="M163.834,32.547c-4.963,0-9-4.038-9-9s4.037-9,9-9s9,4.038,9,9S168.797,32.547,163.834,32.547z
			 M163.834,17.547c-3.309,0-6,2.691-6,6s2.691,6,6,6s6-2.691,6-6S167.143,17.547,163.834,17.547z"/>
	</g>
	<g>
		<path fill="#4D4D4D" d="M100.325,70.654c-0.384,0-0.768-0.146-1.061-0.439c-0.586-0.586-0.586-1.536,0-2.121l9-8.999
			c0.586-0.586,1.535-0.586,2.121,0s0.586,1.536,0,2.121l-9,8.999C101.093,70.508,100.709,70.654,100.325,70.654z"/>
	</g>
	<g>
		<path fill="#4D4D4D" d="M100.325,90.726c-0.384,0-0.768-0.146-1.061-0.439c-0.586-0.586-0.586-1.535,0-2.121l9-8.999
			c0.586-0.586,1.535-0.586,2.121,0s0.586,1.535,0,2.121l-9,8.999C101.093,90.579,100.709,90.726,100.325,90.726z"/>
	</g>
	<g>
		<path fill="#4D4D4D" d="M100.325,110.798c-0.384,0-0.768-0.146-1.061-0.439c-0.586-0.586-0.586-1.535,0-2.121l9-8.999
			c0.586-0.586,1.535-0.586,2.121,0s0.586,1.535,0,2.121l-9,8.999C101.093,110.652,100.709,110.798,100.325,110.798z"/>
	</g>
	<g>
		<g>
			<path fill="#4D4D4D" d="M167.251,89.645c-0.384,0-0.768-0.146-1.061-0.439l-6.834-6.836c-0.586-0.586-0.586-1.536,0-2.121
				c0.586-0.586,1.535-0.586,2.121,0l6.834,6.836c0.586,0.586,0.586,1.536,0,2.121C168.019,89.498,167.635,89.645,167.251,89.645z"
				/>
		</g>
		<g>
			<path fill="#4D4D4D" d="M160.416,89.645c-0.384,0-0.768-0.146-1.061-0.439c-0.586-0.586-0.586-1.535,0-2.121l6.836-6.836
				c0.586-0.586,1.535-0.586,2.121,0s0.586,1.535,0,2.121l-6.836,6.836C161.184,89.498,160.8,89.645,160.416,89.645z"/>
		</g>
	</g>
	<g>
		<g>
			<path fill="#4D4D4D" d="M167.251,109.716c-0.384,0-0.768-0.146-1.061-0.439l-6.834-6.836c-0.586-0.586-0.586-1.536,0-2.121
				c0.586-0.586,1.535-0.586,2.121,0l6.834,6.836c0.586,0.586,0.586,1.536,0,2.121C168.019,109.57,167.635,109.716,167.251,109.716z
				"/>
		</g>
		<g>
			<path fill="#4D4D4D" d="M160.416,109.716c-0.384,0-0.768-0.146-1.061-0.439c-0.586-0.586-0.586-1.535,0-2.121l6.836-6.835
				c0.586-0.586,1.535-0.586,2.121,0s0.586,1.535,0,2.121l-6.836,6.835C161.184,109.57,160.8,109.716,160.416,109.716z"/>
		</g>
	</g>
	<g>
		<path fill="#4D4D4D" d="M159.334,70.654c-0.384,0-0.768-0.146-1.061-0.439c-0.586-0.586-0.586-1.536,0-2.121l9-8.999
			c0.586-0.586,1.535-0.586,2.121,0s0.586,1.536,0,2.121l-9,8.999C160.102,70.508,159.718,70.654,159.334,70.654z"/>
	</g>
	<g>
		<path fill="#4D4D4D" d="M45.167,21.548H25.834c-0.829,0-1.5-0.671-1.5-1.5s0.671-1.5,1.5-1.5h19.333c0.829,0,1.5,0.671,1.5,1.5
			S45.996,21.548,45.167,21.548z"/>
	</g>
	<g>
		<path fill="#4D4D4D" d="M50.833,66.155H33.187c-0.829,0-1.5-0.671-1.5-1.5s0.671-1.5,1.5-1.5h17.647c0.829,0,1.5,0.671,1.5,1.5
			S51.662,66.155,50.833,66.155z"/>
	</g>
	<g>
		<path fill="#4D4D4D" d="M50.833,86.227H33.187c-0.829,0-1.5-0.672-1.5-1.5s0.671-1.5,1.5-1.5h17.647c0.829,0,1.5,0.672,1.5,1.5
			S51.662,86.227,50.833,86.227z"/>
	</g>
	<g>
		<path fill="#4D4D4D" d="M50.833,106.299H33.187c-0.829,0-1.5-0.672-1.5-1.5s0.671-1.5,1.5-1.5h17.647c0.829,0,1.5,0.672,1.5,1.5
			S51.662,106.299,50.833,106.299z"/>
	</g>
	<g>
		<path fill="#4D4D4D" d="M45.167,30.215H25.834c-0.829,0-1.5-0.671-1.5-1.5s0.671-1.5,1.5-1.5h19.333c0.829,0,1.5,0.671,1.5,1.5
			S45.996,30.215,45.167,30.215z"/>
	</g>
	<g>
		<circle fill="#4D4D4D" cx="27.864" cy="64.655" r="1.605"/>
	</g>
	<g>
		<circle fill="#4D4D4D" cx="27.864" cy="84.727" r="1.605"/>
	</g>
	<g>
		<circle fill="#4D4D4D" cx="27.864" cy="104.798" r="1.605"/>
	</g>
</g>
</svg>
