<?xml version="1.0" encoding="utf-8"?>
<!-- Generator: Adobe Illustrator 16.0.3, SVG Export Plug-In . SVG Version: 6.00 Build 0)  -->
<!DOCTYPE svg PUBLIC "-//W3C//DTD SVG 1.1//EN" "http://www.w3.org/Graphics/SVG/1.1/DTD/svg11.dtd" [
	<!ENTITY ns_extend "http://ns.adobe.com/Extensibility/1.0/">
	<!ENTITY ns_ai "http://ns.adobe.com/AdobeIllustrator/10.0/">
	<!ENTITY ns_graphs "http://ns.adobe.com/Graphs/1.0/">
	<!ENTITY ns_vars "http://ns.adobe.com/Variables/1.0/">
	<!ENTITY ns_imrep "http://ns.adobe.com/ImageReplacement/1.0/">
	<!ENTITY ns_sfw "http://ns.adobe.com/SaveForWeb/1.0/">
	<!ENTITY ns_custom "http://ns.adobe.com/GenericCustomNamespace/1.0/">
	<!ENTITY ns_adobe_xpath "http://ns.adobe.com/XPath/1.0/">
]>
<svg version="1.1" id="Layer_1" xmlns:x="&ns_extend;" xmlns:i="&ns_ai;" xmlns:graph="&ns_graphs;"
	 xmlns="http://www.w3.org/2000/svg" xmlns:xlink="http://www.w3.org/1999/xlink" x="0px" y="0px" width="208.501px"
	 height="147.916px" viewBox="0 0 208.501 147.916" enable-background="new 0 0 208.501 147.916" xml:space="preserve">
<metadata>
	<sfw  xmlns="&ns_sfw;">
		<slices></slices>
		<sliceSourceBounds  height="416.803" width="661.262" y="-466.273" x="61.597" bottomLeftOrigin="true"></sliceSourceBounds>
	</sfw>
</metadata>
<g>
	<path fill="none" d="M153.736,97.526c3.523-1.646,7.277-2.482,11.147-2.482c9.565,0,18.411,5.242,23.05,13.507h5.567V77.071
		l-13.455-5.923h-40.675v37.402h2.489C144.548,103.732,148.705,99.857,153.736,97.526z"/>
	<path fill="none" d="M164.898,110.164c-6.273,0-11.377,5.104-11.377,11.377s5.104,11.377,11.377,11.377s11.377-5.104,11.377-11.377
		S171.172,110.164,164.898,110.164z"/>
	<path fill="none" d="M162.46,42.986c-1.12-2.146-3.343-3.485-5.798-3.485l-17.291,0.001v16.604h29.869L162.46,42.986z"/>
	<path fill="none" d="M40.209,132.918c6.273,0,11.377-5.104,11.377-11.377s-5.104-11.377-11.377-11.377s-11.377,5.104-11.377,11.377
		S33.936,132.918,40.209,132.918z"/>
	<path fill="none" d="M40.093,95.033h0.231c9.553,0,18.352,5.246,22.932,13.518h61.073v-19.77H15.043v19.77h2.116
		C21.721,100.278,30.519,95.033,40.093,95.033z"/>
	<path fill="none" d="M124.329,21.762c0.016-1.809-0.654-3.454-1.885-4.705c-1.234-1.255-2.881-1.954-4.635-1.969H21.447
		c-3.531,0-6.404,2.994-6.404,6.674v51.977h109.286V21.762z"/>
	<polygon fill="none" points="40.157,144.914 40.157,144.916 40.157,144.914 	"/>
	<path fill="#4D4D4D" d="M40.157,141.916c11.224,0,20.387-9.125,20.426-20.341v-0.214c0-0.213,0-0.305-0.03-0.607l-0.328-3.297
		h84.211v3.904c-0.02,5.465,2.086,10.601,5.928,14.474c3.842,3.874,8.96,6.018,14.41,6.036c11.298,0,20.461-9.125,20.5-20.341
		v-4.118h8.832c4.627,0,8.393-3.766,8.393-8.395V76.738c0.066-3.302-1.971-6.387-5.071-7.738l-14.767-6.393l-12.201-23.74
		c-2.646-5.22-7.934-8.453-13.804-8.453h-23.284v-8.697c0-8.666-6.97-15.717-15.536-15.717H21.447
		C12.93,6,6.001,13.051,6.001,21.717v87.256c-0.066,4.656,3.637,8.464,8.255,8.529h0.138h5.396v3c0,0.366-0.02,0.61-0.037,0.822
		l-0.008,0.101c-0.019,5.445,2.086,10.582,5.929,14.455c3.842,3.874,8.96,6.018,14.411,6.036l0.073,2.998l0,0V141.916z
		 M164.898,138.918c-9.582,0-17.377-7.795-17.377-17.377s7.795-17.377,17.377-17.377s17.377,7.795,17.377,17.377
		S174.48,138.918,164.898,138.918z M133.371,33.502l23.291-0.001c4.698,0,8.961,2.575,11.123,6.721l11.309,21.884h-45.723V33.502z
		 M133.371,65.148h47.937l15.089,6.646c1.929,0.965,3.168,3.039,3.104,5.18v32.089c0,3.077-2.351,5.488-5.351,5.488h-9.957
		l-0.808-1.73c-3.343-7.154-10.604-11.776-18.502-11.776c-2.986,0-5.886,0.646-8.616,1.922c-4.344,2.014-7.84,5.509-9.851,9.847
		l-0.806,1.738h-12.24V65.148z M9.043,21.762c0-6.988,5.564-12.674,12.404-12.674h96.388c3.381,0.028,6.528,1.364,8.887,3.761
		c2.355,2.394,3.637,5.553,3.607,8.895v57.995H9.043V21.762z M20.935,114.551h-6.541c-3,0-5.351-2.411-5.351-5.488V82.781h121.286
		v31.77h-70.84l-0.803-1.748c-3.282-7.15-10.49-11.77-18.363-11.77h-0.231c-7.891,0-15.097,4.617-18.357,11.763L20.935,114.551z
		 M22.832,121.541c0-9.582,7.795-17.377,17.377-17.377s17.377,7.795,17.377,17.377s-7.795,17.377-17.377,17.377
		S22.832,131.123,22.832,121.541z"/>
	<path fill="#FFFFFF" d="M199.818,63.497l-12.805-5.542L175.803,36.14c-3.668-7.233-11.004-11.726-19.147-11.726h-17.284v-2.697
		C139.371,9.742,129.71,0,117.835,0H21.447C9.622,0,0.001,9.742,0.001,21.717l0,87.213c-0.111,7.791,6.034,14.242,13.818,14.562
		c0.466,6.268,3.12,12.104,7.594,16.614c4.972,5.013,11.595,7.786,18.65,7.811h0.093c13.892,0,25.343-10.807,26.354-24.459h72
		c0.468,6.264,3.121,12.096,7.593,16.604c4.972,5.013,11.596,7.786,18.743,7.811c13.892,0,25.344-10.807,26.354-24.459h2.904
		c7.936,0,14.393-6.457,14.393-14.395V76.8C208.613,71.157,205.128,65.813,199.818,63.497z M40.157,144.914l-0.073-2.998
		c-5.451-0.019-10.568-2.162-14.411-6.036c-3.842-3.873-5.947-9.01-5.929-14.455l0.008-0.101c0.018-0.212,0.037-0.456,0.037-0.822
		v-3h-5.396h-0.138c-4.618-0.065-8.321-3.873-8.255-8.529V21.717C6.001,13.051,12.93,6,21.447,6h96.388
		c8.566,0,15.536,7.051,15.536,15.717v8.697h23.284c5.87,0,11.157,3.233,13.804,8.453l12.201,23.74L197.427,69
		c3.101,1.352,5.138,4.437,5.071,7.738v32.279c0,4.629-3.766,8.395-8.393,8.395h-8.832v4.118
		c-0.039,11.216-9.202,20.341-20.5,20.341c-5.45-0.019-10.568-2.162-14.41-6.036c-3.842-3.873-5.947-9.009-5.928-14.474v-3.904
		H60.225l0.328,3.297c0.03,0.303,0.03,0.395,0.03,0.607v0.214c-0.039,11.216-9.202,20.341-20.426,20.341V144.914v0.002V144.914z"/>
	<path fill="#FFFFFF" d="M146.417,112.813c2.011-4.338,5.507-7.833,9.851-9.847c2.73-1.275,5.63-1.922,8.616-1.922
		c7.897,0,15.159,4.622,18.502,11.776l0.808,1.73h9.957c3,0,5.351-2.411,5.351-5.488V76.974c0.063-2.141-1.176-4.215-3.104-5.18
		l-15.089-6.646h-47.937v49.402h12.24L146.417,112.813z M139.371,108.551V71.148h40.675l13.455,5.923v31.479h-5.567
		c-4.639-8.265-13.484-13.507-23.05-13.507c-3.87,0-7.624,0.836-11.147,2.482c-5.031,2.331-9.188,6.206-11.876,11.024H139.371z"/>
	<path fill="#FFFFFF" d="M164.898,104.164c-9.582,0-17.377,7.795-17.377,17.377s7.795,17.377,17.377,17.377
		s17.377-7.795,17.377-17.377S174.48,104.164,164.898,104.164z M164.898,132.918c-6.273,0-11.377-5.104-11.377-11.377
		s5.104-11.377,11.377-11.377s11.377,5.104,11.377,11.377S171.172,132.918,164.898,132.918z"/>
	<path fill="#FFFFFF" d="M167.785,40.222c-2.162-4.146-6.425-6.721-11.123-6.721l-23.291,0.001v28.604h45.723L167.785,40.222z
		 M139.371,39.502l17.291-0.001c2.455,0,4.678,1.34,5.798,3.485l6.78,13.119h-29.869V39.502z"/>
	<path fill="#FFFFFF" d="M40.093,101.033h0.231c7.873,0,15.081,4.619,18.363,11.77l0.803,1.748h70.84v-31.77H9.043v26.281
		c0,3.077,2.351,5.488,5.351,5.488h6.541l0.801-1.755C24.996,105.65,32.202,101.033,40.093,101.033z M15.043,108.551v-19.77h109.286
		v19.77H63.256c-4.581-8.271-13.379-13.518-22.932-13.518h-0.231c-9.574,0-18.372,5.245-22.934,13.518H15.043z"/>
	<path fill="#FFFFFF" d="M130.329,21.743c0.029-3.342-1.252-6.501-3.607-8.895c-2.358-2.396-5.506-3.732-8.887-3.761H21.447
		c-6.839,0-12.404,5.686-12.404,12.674v57.977h121.286V21.743z M15.043,21.762c0-3.68,2.873-6.674,6.404-6.674h96.363
		c1.754,0.015,3.4,0.714,4.635,1.969c1.23,1.251,1.9,2.896,1.885,4.705v51.977H15.043V21.762z"/>
	<path fill="#FFFFFF" d="M57.586,121.541c0-9.582-7.795-17.377-17.377-17.377s-17.377,7.795-17.377,17.377
		s7.795,17.377,17.377,17.377S57.586,131.123,57.586,121.541z M40.209,110.164c6.273,0,11.377,5.104,11.377,11.377
		s-5.104,11.377-11.377,11.377s-11.377-5.104-11.377-11.377S33.936,110.164,40.209,110.164z"/>
</g>
</svg>
