<?xml version="1.0" encoding="utf-8"?>
<!-- Generator: Adobe Illustrator 16.0.3, SVG Export Plug-In . SVG Version: 6.00 Build 0)  -->
<!DOCTYPE svg PUBLIC "-//W3C//DTD SVG 1.1//EN" "http://www.w3.org/Graphics/SVG/1.1/DTD/svg11.dtd" [
	<!ENTITY ns_extend "http://ns.adobe.com/Extensibility/1.0/">
	<!ENTITY ns_ai "http://ns.adobe.com/AdobeIllustrator/10.0/">
	<!ENTITY ns_graphs "http://ns.adobe.com/Graphs/1.0/">
	<!ENTITY ns_vars "http://ns.adobe.com/Variables/1.0/">
	<!ENTITY ns_imrep "http://ns.adobe.com/ImageReplacement/1.0/">
	<!ENTITY ns_sfw "http://ns.adobe.com/SaveForWeb/1.0/">
	<!ENTITY ns_custom "http://ns.adobe.com/GenericCustomNamespace/1.0/">
	<!ENTITY ns_adobe_xpath "http://ns.adobe.com/XPath/1.0/">
]>
<svg version="1.1" id="Layer_1" xmlns:x="&ns_extend;" xmlns:i="&ns_ai;" xmlns:graph="&ns_graphs;"
	 xmlns="http://www.w3.org/2000/svg" xmlns:xlink="http://www.w3.org/1999/xlink" x="0px" y="0px" width="137.563px"
	 height="139.687px" viewBox="0 0 137.563 139.687" enable-background="new 0 0 137.563 139.687" xml:space="preserve">
<metadata>
	<sfw  xmlns="&ns_sfw;">
		<slices></slices>
		<sliceSourceBounds  height="416.803" width="661.262" y="-466.273" x="61.597" bottomLeftOrigin="true"></sliceSourceBounds>
	</sfw>
</metadata>
<g>
	<g>
		<path fill="#4D4D4D" d="M89.865,87.163c-5.511,0-10.84-1.113-15.842-3.31c-1.293-0.566-2.749-0.255-3.703,0.676
			c-0.01,0.009-0.02,0.017-0.029,0.027L58.982,95.864h-9.217c-1.859,0-3.366,1.507-3.366,3.367v7.243h-3.3
			c-1.859,0-3.367,1.508-3.367,3.367v3.3H31.5c-1.859,0-3.367,1.508-3.367,3.366v10.214l-4.738,4.732H8.234v-4.758l41.15-41.15
			c1.184-1.184,1.184-3.102,0-4.285s-3.102-1.184-4.285,0L8.234,118.126v-6.083l44.77-44.771c0.01-0.011,0.018-0.021,0.026-0.03
			c0.931-0.952,1.243-2.409,0.677-3.703c-2.195-5.001-3.306-10.33-3.306-15.839c0-21.761,17.704-39.465,39.465-39.465
			s39.464,17.702,39.464,39.465C129.33,69.459,111.627,87.163,89.865,87.163 M89.865,1.5c-25.475,0-46.199,20.725-46.199,46.199
			c0,5.663,1.008,11.166,2.993,16.392L2.486,108.268C1.855,108.9,1.5,109.756,1.5,110.648v24.173c0,1.858,1.508,3.365,3.366,3.365
			h19.921c0.891,0,1.747-0.353,2.379-0.983l6.713-6.702c0.633-0.632,0.987-1.489,0.987-2.383v-8.243H43.1
			c1.859,0,3.365-1.507,3.365-3.367v-3.299h3.301c1.859,0,3.367-1.508,3.367-3.367v-7.244h7.244c0.893,0,1.748-0.354,2.381-0.986
			L73.469,90.9c5.227,1.988,10.73,2.997,16.396,2.997c25.474,0,46.199-20.726,46.199-46.199S115.34,1.5,89.865,1.5"/>
	</g>
	<g>
		<path fill="#F2F2F2" d="M24.787,139.687H4.866c-2.684,0-4.866-2.183-4.866-4.865v-24.173c0-1.297,0.506-2.519,1.424-3.44
			l43.496-43.5c-1.828-5.125-2.754-10.506-2.754-16.009C42.166,21.398,63.563,0,89.865,0c26.301,0,47.698,21.397,47.698,47.698
			c0,26.301-21.397,47.699-47.699,47.699c-5.506,0-10.888-0.927-16.014-2.758l-10.032,10.032c-0.921,0.92-2.143,1.426-3.441,1.426
			h-5.744v5.744c0,2.684-2.184,4.867-4.867,4.867h-1.801v1.799c0,2.684-2.183,4.867-4.865,4.867h-6.733v6.743
			c0,1.302-0.507,2.525-1.428,3.444l-6.713,6.702C27.308,139.182,26.086,139.687,24.787,139.687z M89.865,3
			C65.218,3,45.166,23.052,45.166,47.699c0,5.466,0.975,10.802,2.896,15.859l0.345,0.907L3.547,109.328
			C3.195,109.682,3,110.151,3,110.648v24.173c0,1.028,0.837,1.865,1.866,1.865h19.921c0.491,0,0.973-0.199,1.319-0.545l6.713-6.702
			c0.353-0.352,0.547-0.821,0.547-1.321v-9.743H43.1c1.028,0,1.865-0.837,1.865-1.867v-4.799h4.801c1.029,0,1.867-0.837,1.867-1.867
			v-8.744h8.744c0.498,0,0.967-0.194,1.321-0.548l11.396-11.396l0.907,0.345c5.057,1.923,10.394,2.899,15.862,2.899
			c24.647,0,44.699-20.052,44.699-44.699C134.563,23.052,114.512,3,89.865,3z M24.016,132.954H6.734v-6.879l41.59-41.59
			c0.597-0.597,0.597-1.567,0-2.164c-0.578-0.578-1.586-0.578-2.164,0L6.734,121.747v-10.325l45.209-45.211
			c0.549-0.565,0.696-1.371,0.39-2.071c-2.277-5.187-3.432-10.718-3.432-16.44c0-22.588,18.377-40.965,40.965-40.965
			s40.964,18.377,40.964,40.965c0,22.587-18.377,40.964-40.965,40.964c-5.72,0-11.252-1.156-16.445-3.436
			c-0.683-0.3-1.521-0.143-2.052,0.376L59.604,97.364h-9.838c-1.029,0-1.866,0.837-1.866,1.867v8.743h-4.8
			c-1.029,0-1.867,0.837-1.867,1.867v4.8H31.5c-1.029,0-1.867,0.837-1.867,1.866v10.836L24.016,132.954z M9.734,129.954h13.039
			l3.859-3.854v-9.592c0-2.683,2.184-4.866,4.867-4.866h6.732v-1.8c0-2.684,2.184-4.867,4.867-4.867h1.8v-5.743
			c0-2.684,2.183-4.867,4.866-4.867h8.596l10.964-10.957c1.318-1.291,3.504-1.715,5.3-0.928c4.812,2.113,9.938,3.184,15.24,3.184
			c20.934,0,37.965-17.03,37.965-37.964c0-20.934-17.03-37.965-37.964-37.965S51.901,26.765,51.901,47.699
			c0,5.304,1.069,10.43,3.179,15.236c0.801,1.828,0.416,3.929-0.978,5.354L9.734,112.664v1.84L44.039,80.2
			c0.855-0.856,1.993-1.327,3.203-1.327s2.348,0.471,3.203,1.327c1.767,1.766,1.767,4.64,0,6.406L9.734,127.317V129.954z"/>
	</g>
	<g>
		<path fill="#4D4D4D" d="M103.925,39.515c-3.241,0-5.877-2.637-5.877-5.877s2.636-5.878,5.877-5.878s5.877,2.638,5.877,5.878
			S107.166,39.515,103.925,39.515 M103.925,21.027c-6.954,0-12.61,5.657-12.61,12.61s5.656,12.611,12.61,12.611
			s12.611-5.658,12.611-12.611S110.879,21.027,103.925,21.027"/>
	</g>
	<g>
		<path fill="#F2F2F2" d="M103.925,47.999c-7.918,0-14.36-6.442-14.36-14.361c0-7.918,6.442-14.36,14.36-14.36
			c7.919,0,14.361,6.442,14.361,14.36C118.286,41.557,111.844,47.999,103.925,47.999z M103.925,22.777
			c-5.988,0-10.86,4.872-10.86,10.86c0,5.989,4.872,10.861,10.86,10.861c5.989,0,10.861-4.873,10.861-10.861
			C114.786,27.649,109.914,22.777,103.925,22.777z M103.925,41.265c-4.205,0-7.627-3.421-7.627-7.627
			c0-4.206,3.422-7.628,7.627-7.628s7.627,3.422,7.627,7.628C111.552,37.843,108.13,41.265,103.925,41.265z M103.925,29.51
			c-2.275,0-4.127,1.852-4.127,4.128c0,2.275,1.852,4.127,4.127,4.127s4.127-1.852,4.127-4.127
			C108.052,31.361,106.2,29.51,103.925,29.51z"/>
	</g>
</g>
</svg>
