<?xml version="1.0" encoding="utf-8"?>
<!-- Generator: Adobe Illustrator 16.0.3, SVG Export Plug-In . SVG Version: 6.00 Build 0)  -->
<!DOCTYPE svg PUBLIC "-//W3C//DTD SVG 1.1//EN" "http://www.w3.org/Graphics/SVG/1.1/DTD/svg11.dtd" [
	<!ENTITY ns_extend "http://ns.adobe.com/Extensibility/1.0/">
	<!ENTITY ns_ai "http://ns.adobe.com/AdobeIllustrator/10.0/">
	<!ENTITY ns_graphs "http://ns.adobe.com/Graphs/1.0/">
	<!ENTITY ns_vars "http://ns.adobe.com/Variables/1.0/">
	<!ENTITY ns_imrep "http://ns.adobe.com/ImageReplacement/1.0/">
	<!ENTITY ns_sfw "http://ns.adobe.com/SaveForWeb/1.0/">
	<!ENTITY ns_custom "http://ns.adobe.com/GenericCustomNamespace/1.0/">
	<!ENTITY ns_adobe_xpath "http://ns.adobe.com/XPath/1.0/">
]>
<svg version="1.1" id="Layer_1" xmlns:x="&ns_extend;" xmlns:i="&ns_ai;" xmlns:graph="&ns_graphs;"
	 xmlns="http://www.w3.org/2000/svg" xmlns:xlink="http://www.w3.org/1999/xlink" x="0px" y="0px" width="122px" height="139.443px"
	 viewBox="0 0 122 139.443" enable-background="new 0 0 122 139.443" xml:space="preserve">
<metadata>
	<sfw  xmlns="&ns_sfw;">
		<slices></slices>
		<sliceSourceBounds  height="139.443" width="122" x="418.5" y="293.778" bottomLeftOrigin="true"></sliceSourceBounds>
	</sfw>
</metadata>
<g>
	<path fill="#4D4D4D" d="M72.557,68.66H22.235c-2.338,0-3.235,1.137-3.235,2.537c0,1.402,0.896,2.537,3.235,2.537h50.322
		c2.34,0,3.235-1.135,3.235-2.537C75.793,69.797,74.896,68.66,72.557,68.66"/>
</g>
<g>
	<path fill="#FFFFFF" d="M72.557,74.734H22.235C19.3,74.734,18,73.181,18,71.197s1.3-3.537,4.235-3.537h50.322
		c2.937,0,4.235,1.554,4.235,3.537S75.493,74.734,72.557,74.734z M22.235,69.66C20.26,69.66,20,70.57,20,71.197
		s0.261,1.537,2.235,1.537h50.322c1.976,0,2.235-0.91,2.235-1.537s-0.261-1.537-2.235-1.537H22.235z"/>
</g>
<g>
	<path fill="#4D4D4D" d="M79.096,57.834h-56.87c-2.334,0-3.226,1.138-3.226,2.537c0,1.402,0.892,2.539,3.226,2.539h56.87
		c2.334,0,3.227-1.137,3.227-2.539C82.322,58.971,81.43,57.834,79.096,57.834"/>
</g>
<g>
	<path fill="#FFFFFF" d="M79.096,63.91h-56.87c-2.931,0-4.226-1.555-4.226-3.539c0-1.982,1.295-3.537,4.226-3.537h56.87
		c2.932,0,4.227,1.555,4.227,3.537C83.322,62.355,82.025,63.91,79.096,63.91z M22.226,58.834c-1.969,0-2.226,0.91-2.226,1.537
		c0,0.628,0.257,1.539,2.226,1.539h56.87c1.971,0,2.227-0.911,2.227-1.539c0-0.627-0.256-1.537-2.227-1.537H22.226z"/>
</g>
<g>
	<path fill="#4D4D4D" d="M47.321,98.43H22.314c-2.383,0-3.313,1.137-3.313,2.536c0,1.402,0.931,2.539,3.313,2.539h25.007
		c2.383,0,3.314-1.137,3.314-2.539C50.636,99.566,49.704,98.43,47.321,98.43"/>
</g>
<g>
	<path fill="#FFFFFF" d="M47.321,104.506H22.314c-2.979,0-4.313-1.555-4.313-3.539c0-1.982,1.334-3.536,4.313-3.536h25.007
		c2.98,0,4.314,1.554,4.314,3.536C51.636,102.951,50.302,104.506,47.321,104.506z M22.314,99.43c-2.022,0-2.313,0.909-2.313,1.536
		c0,0.629,0.291,1.539,2.313,1.539h25.007c2.023,0,2.314-0.91,2.314-1.539c0-0.627-0.291-1.536-2.314-1.536H22.314z"/>
</g>
<g>
	<path fill="#4D4D4D" d="M56.195,87.605h-33.92c-2.361,0-3.275,1.137-3.275,2.537c0,1.401,0.914,2.537,3.275,2.537h33.92
		c2.36,0,3.274-1.136,3.274-2.537C59.47,88.742,58.556,87.605,56.195,87.605"/>
</g>
<g>
	<path fill="#FFFFFF" d="M56.195,93.68h-33.92c-2.958,0-4.275-1.555-4.275-3.537c0-1.983,1.317-3.537,4.275-3.537h33.92
		c2.958,0,4.274,1.554,4.274,3.537C60.469,92.126,59.153,93.68,56.195,93.68z M22.275,88.605c-1.999,0-2.275,0.91-2.275,1.537
		s0.276,1.537,2.275,1.537h33.92c1.999,0,2.274-0.91,2.274-1.537s-0.275-1.537-2.274-1.537H22.275z"/>
</g>
<g>
	<path fill="#4D4D4D" d="M81.766,38.891H55.192c-0.859,0-2.558,1.135-2.558,2.537c0,1.399,1.697,2.536,2.558,2.536h26.574
		c0.858,0,2.557-1.137,2.557-2.536C84.322,40.025,82.625,38.891,81.766,38.891"/>
</g>
<g>
	<path fill="#FFFFFF" d="M81.766,44.965H55.192c-1.435,0-3.558-1.554-3.558-3.536c0-1.983,2.123-3.537,3.558-3.537h26.574
		c1.434,0,3.557,1.554,3.557,3.537C85.322,43.411,83.199,44.965,81.766,44.965z M81.762,39.891h-26.57
		c-0.131,0.029-1.558,0.551-1.558,1.537c0,0.985,1.427,1.507,1.563,1.536h26.565c0.137-0.034,1.561-0.557,1.561-1.536
		C83.322,40.441,81.896,39.921,81.762,39.891z"/>
</g>
<g>
	<path fill="#4D4D4D" d="M74.967,28.064H55.181c-0.853,0-2.546,1.135-2.546,2.537c0,1.401,1.692,2.537,2.546,2.537h19.786
		c0.854,0,2.547-1.136,2.547-2.537C77.514,29.199,75.82,28.064,74.967,28.064"/>
</g>
<g>
	<path fill="#FFFFFF" d="M74.967,34.139H55.181c-1.428,0-3.546-1.555-3.546-3.537c0-1.983,2.118-3.537,3.546-3.537h19.786
		c1.428,0,3.547,1.554,3.547,3.537C78.514,32.585,76.395,34.139,74.967,34.139z M74.959,29.063l-19.778,0.001
		c-0.125,0.034-1.546,0.563-1.546,1.537s1.42,1.503,1.554,1.538l19.773-0.001c0.138-0.041,1.552-0.569,1.552-1.537
		C76.514,29.627,75.093,29.099,74.959,29.063z"/>
</g>
<g>
	<path fill="#4D4D4D" d="M100.968,1H8.95C4.567,1,1,4.566,1,8.949v113.67c0,4.385,3.565,7.949,7.95,7.949h46.009
		c1.401,0,2.538-1.135,2.538-2.537c0-1.4-1.137-2.537-2.538-2.537H8.95c-1.586,0-2.875-1.289-2.875-2.875V8.949
		c0-1.586,1.289-2.875,2.875-2.875h92.018c1.587,0,2.876,1.289,2.876,2.875v63.9c0,1.399,1.137,2.537,2.537,2.537
		s2.537-1.138,2.537-2.537v-63.9C108.918,4.566,105.352,1,100.968,1"/>
</g>
<g>
	<path fill="#FFFFFF" d="M54.959,131.568H8.95c-4.936,0-8.95-4.015-8.95-8.949V8.949C0,4.015,4.015,0,8.95,0h92.018
		c4.937,0,8.95,4.016,8.95,8.949v63.9c0,1.949-1.587,3.537-3.537,3.537c-1.949,0-3.537-1.588-3.537-3.537v-63.9
		c0-1.034-0.842-1.875-1.876-1.875H8.95c-1.034,0-1.875,0.841-1.875,1.875v113.67c0,1.034,0.841,1.875,1.875,1.875h46.009
		c1.951,0,3.538,1.587,3.538,3.537S56.91,131.568,54.959,131.568z M8.95,2C5.118,2,2,5.117,2,8.949v113.67
		c0,3.832,3.118,6.949,6.95,6.949h46.009c0.848,0,1.538-0.689,1.538-1.537s-0.69-1.537-1.538-1.537H8.95
		c-2.137,0-3.875-1.738-3.875-3.875V8.949c0-2.137,1.738-3.875,3.875-3.875h92.018c2.138,0,3.876,1.738,3.876,3.875v63.9
		c0,0.848,0.689,1.537,1.537,1.537s1.537-0.689,1.537-1.537v-63.9c0-3.832-3.118-6.949-6.95-6.949H8.95z"/>
</g>
<g>
	<path fill="#4D4D4D" d="M96,139.443c-14.337,0-26-11.663-26-26s11.663-26,26-26s26,11.663,26,26S110.337,139.443,96,139.443z
		 M96,90.443c-12.684,0-23,10.317-23,23s10.316,23,23,23s23-10.317,23-23S108.684,90.443,96,90.443z"/>
</g>
<g>
	<path fill="#4D4D4D" d="M108.623,106.725l-15.557,15.557c-0.585,0.586-1.536,0.585-2.121,0l-7.568-7.568
		c-0.586-0.586-0.586-1.536,0-2.121c0.586-0.586,1.536-0.586,2.121,0l6.508,6.508l14.496-14.496c0.585-0.586,1.535-0.586,2.121,0
		C109.208,105.189,109.209,106.14,108.623,106.725z"/>
</g>
<path fill="none" stroke="#4D4D4D" stroke-width="3.2" stroke-miterlimit="10" d="M44.977,44.966c0,2.209-1.791,4-4,4H24.238
	c-2.209,0-4-1.791-4-4V28.228c0-2.209,1.791-4,4-4h16.738c2.209,0,4,1.791,4,4V44.966z"/>
</svg>
