<?xml version="1.0" encoding="utf-8"?>
<!-- Generator: Adobe Illustrator 16.0.3, SVG Export Plug-In . SVG Version: 6.00 Build 0)  -->
<!DOCTYPE svg PUBLIC "-//W3C//DTD SVG 1.1//EN" "http://www.w3.org/Graphics/SVG/1.1/DTD/svg11.dtd" [
	<!ENTITY ns_extend "http://ns.adobe.com/Extensibility/1.0/">
	<!ENTITY ns_ai "http://ns.adobe.com/AdobeIllustrator/10.0/">
	<!ENTITY ns_graphs "http://ns.adobe.com/Graphs/1.0/">
	<!ENTITY ns_vars "http://ns.adobe.com/Variables/1.0/">
	<!ENTITY ns_imrep "http://ns.adobe.com/ImageReplacement/1.0/">
	<!ENTITY ns_sfw "http://ns.adobe.com/SaveForWeb/1.0/">
	<!ENTITY ns_custom "http://ns.adobe.com/GenericCustomNamespace/1.0/">
	<!ENTITY ns_adobe_xpath "http://ns.adobe.com/XPath/1.0/">
]>
<svg version="1.1" id="Layer_1" xmlns:x="&ns_extend;" xmlns:i="&ns_ai;" xmlns:graph="&ns_graphs;"
	 xmlns="http://www.w3.org/2000/svg" xmlns:xlink="http://www.w3.org/1999/xlink" x="0px" y="0px" width="142px" height="109.443px"
	 viewBox="0 0 142 109.443" enable-background="new 0 0 142 109.443" xml:space="preserve">
<metadata>
	<sfw  xmlns="&ns_sfw;">
		<slices></slices>
		<sliceSourceBounds  height="498.023" width="530.818" y="-928.58" x="273.137" bottomLeftOrigin="true"></sliceSourceBounds>
	</sfw>
</metadata>
<g>
	<g>
		<path fill="#4D4D4D" d="M120.967,1H8.949C4.566,1,1,4.565,1,8.949v83.67c0,4.384,3.565,7.949,7.949,7.949h66.01
			c1.4,0,2.537-1.136,2.537-2.537c0-1.4-1.135-2.537-2.537-2.537H8.949c-1.585,0-2.875-1.29-2.875-2.875V8.949
			c0-1.586,1.29-2.876,2.875-2.876h112.018c1.586,0,2.877,1.29,2.877,2.876v33.899c0,1.401,1.137,2.537,2.537,2.537
			s2.537-1.136,2.537-2.537V8.949C128.918,4.565,125.352,1,120.967,1"/>
	</g>
	<g>
		<path fill="#FFFFFF" d="M74.959,101.568H8.949C4.015,101.568,0,97.554,0,92.619V8.949C0,4.015,4.015,0,8.949,0h112.018
			c4.936,0,8.951,4.015,8.951,8.949v33.899c0,1.95-1.587,3.537-3.537,3.537s-3.537-1.587-3.537-3.537V8.949
			c0-1.034-0.842-1.876-1.877-1.876H8.949c-1.034,0-1.875,0.842-1.875,1.876v83.67c0,1.034,0.841,1.875,1.875,1.875h66.01
			c1.95,0,3.537,1.587,3.537,3.537S76.909,101.568,74.959,101.568z M8.949,2C5.117,2,2,5.117,2,8.949v83.67
			c0,3.832,3.117,6.949,6.949,6.949h66.01c0.848,0,1.537-0.689,1.537-1.537s-0.689-1.537-1.537-1.537H8.949
			c-2.137,0-3.875-1.738-3.875-3.875V8.949c0-2.138,1.738-3.876,3.875-3.876h112.018c2.138,0,3.877,1.738,3.877,3.876v33.899
			c0,0.848,0.689,1.537,1.537,1.537s1.537-0.689,1.537-1.537V8.949c0-3.832-3.118-6.949-6.951-6.949H8.949z"/>
	</g>
	<g>
		<path fill="#4D4D4D" d="M116,109.443c-14.337,0-26-11.663-26-26s11.663-26,26-26s26,11.663,26,26S130.337,109.443,116,109.443z
			 M116,60.443c-12.683,0-23,10.317-23,23s10.317,23,23,23s23-10.317,23-23S128.683,60.443,116,60.443z M127.18,87.787h-12
			c-0.828,0-1.5-0.672-1.5-1.5V75.584c0-0.828,0.672-1.5,1.5-1.5s1.5,0.672,1.5,1.5v9.203h10.5c0.828,0,1.5,0.672,1.5,1.5
			S128.008,87.787,127.18,87.787z M65.033,58.619c-0.357,0-0.715-0.127-1-0.382L5.967,6.31C5.35,5.757,5.297,4.809,5.849,4.191
			c0.551-0.616,1.5-0.671,2.118-0.118l57.066,51.033L122.1,4.073c0.617-0.553,1.566-0.499,2.118,0.118s0.499,1.565-0.118,2.118
			L66.033,58.237C65.748,58.492,65.391,58.619,65.033,58.619z"/>
	</g>
</g>
</svg>
