<?xml version="1.0" encoding="utf-8"?>
<!-- Generator: Adobe Illustrator 16.0.3, SVG Export Plug-In . SVG Version: 6.00 Build 0)  -->
<!DOCTYPE svg PUBLIC "-//W3C//DTD SVG 1.1//EN" "http://www.w3.org/Graphics/SVG/1.1/DTD/svg11.dtd" [
	<!ENTITY ns_extend "http://ns.adobe.com/Extensibility/1.0/">
	<!ENTITY ns_ai "http://ns.adobe.com/AdobeIllustrator/10.0/">
	<!ENTITY ns_graphs "http://ns.adobe.com/Graphs/1.0/">
	<!ENTITY ns_vars "http://ns.adobe.com/Variables/1.0/">
	<!ENTITY ns_imrep "http://ns.adobe.com/ImageReplacement/1.0/">
	<!ENTITY ns_sfw "http://ns.adobe.com/SaveForWeb/1.0/">
	<!ENTITY ns_custom "http://ns.adobe.com/GenericCustomNamespace/1.0/">
	<!ENTITY ns_adobe_xpath "http://ns.adobe.com/XPath/1.0/">
]>
<svg version="1.1" id="Layer_1" xmlns:x="&ns_extend;" xmlns:i="&ns_ai;" xmlns:graph="&ns_graphs;"
	 xmlns="http://www.w3.org/2000/svg" xmlns:xlink="http://www.w3.org/1999/xlink" x="0px" y="0px" width="122px" height="139.443px"
	 viewBox="0 0 122 139.443" enable-background="new 0 0 122 139.443" xml:space="preserve">
<metadata>
	<sfw  xmlns="&ns_sfw;">
		<slices></slices>
		<sliceSourceBounds  height="139.443" width="122" x="418.5" y="293.778" bottomLeftOrigin="true"></sliceSourceBounds>
	</sfw>
</metadata>
<g>
	<path fill="#4D4D4D" d="M29.5,44.756h-6c-4.035,0-5.5-3.289-5.5-5.5v-6c0-4.034,3.289-5.5,5.5-5.5h6c4.035,0,5.5,3.289,5.5,5.5v6
		C35,43.291,31.711,44.756,29.5,44.756z M23.5,30.756c-0.577,0.012-2.5,0.223-2.5,2.5v6c0.011,0.577,0.222,2.5,2.5,2.5h5.991
		c0.595-0.012,2.509-0.228,2.509-2.5v-6c-0.011-0.576-0.222-2.5-2.5-2.5H23.5z"/>
</g>
<g>
	<path fill="#4D4D4D" d="M29.5,74.381h-6c-4.035,0-5.5-3.289-5.5-5.5v-6c0-4.034,3.289-5.5,5.5-5.5h6c4.035,0,5.5,3.289,5.5,5.5v6
		C35,72.916,31.711,74.381,29.5,74.381z M23.5,60.381c-0.577,0.012-2.5,0.223-2.5,2.5v6c0.011,0.577,0.222,2.5,2.5,2.5h5.991
		c0.595-0.012,2.509-0.228,2.509-2.5v-6c-0.011-0.576-0.222-2.5-2.5-2.5H23.5z"/>
</g>
<g>
	<path fill="#4D4D4D" d="M29.5,104.006h-6c-4.035,0-5.5-3.289-5.5-5.5v-6c0-4.034,3.289-5.5,5.5-5.5h6c4.035,0,5.5,3.289,5.5,5.5v6
		C35,102.541,31.711,104.006,29.5,104.006z M23.5,90.006c-0.577,0.012-2.5,0.223-2.5,2.5v6c0.011,0.577,0.222,2.5,2.5,2.5h5.991
		c0.595-0.012,2.509-0.228,2.509-2.5v-6c-0.011-0.576-0.222-2.5-2.5-2.5H23.5z"/>
</g>
<g>
	<path fill="#4D4D4D" d="M75.785,68.66H46.839c-1.401,0-2.537,1.136-2.537,2.537s1.136,2.537,2.537,2.537h28.946
		c1.4,0,2.535-1.136,2.535-2.537S77.186,68.66,75.785,68.66"/>
</g>
<g>
	<path fill="#FFFFFF" d="M75.785,74.734H46.839c-1.95,0-3.537-1.587-3.537-3.537s1.586-3.537,3.537-3.537h28.946
		c1.949,0,3.535,1.587,3.535,3.537S77.734,74.734,75.785,74.734z M46.839,69.66c-0.847,0-1.537,0.689-1.537,1.537
		s0.689,1.537,1.537,1.537h28.946c0.847,0,1.535-0.689,1.535-1.537s-0.688-1.537-1.535-1.537H46.839z"/>
</g>
<g>
	<path fill="#4D4D4D" d="M79.785,57.834H46.839c-1.401,0-2.537,1.137-2.537,2.537c0,1.402,1.136,2.538,2.537,2.538h32.946
		c1.4,0,2.535-1.136,2.535-2.538C82.32,58.97,81.186,57.834,79.785,57.834"/>
</g>
<g>
	<path fill="#FFFFFF" d="M79.785,63.909H46.839c-1.95,0-3.537-1.587-3.537-3.538c0-1.95,1.586-3.537,3.537-3.537h32.946
		c1.949,0,3.535,1.587,3.535,3.537C83.32,62.322,81.734,63.909,79.785,63.909z M46.839,58.834c-0.847,0-1.537,0.689-1.537,1.537
		c0,0.849,0.689,1.538,1.537,1.538h32.946c0.847,0,1.535-0.689,1.535-1.538c0-0.848-0.688-1.537-1.535-1.537H46.839z"/>
</g>
<g>
	<path fill="#4D4D4D" d="M60.372,98.43H46.84c-1.401,0-2.537,1.137-2.537,2.536c0,1.402,1.135,2.538,2.537,2.538h13.532
		c1.401,0,2.537-1.136,2.537-2.538C62.908,99.566,61.773,98.43,60.372,98.43"/>
</g>
<g>
	<path fill="#FFFFFF" d="M60.372,104.505H46.84c-1.95,0-3.537-1.587-3.537-3.538c0-1.949,1.587-3.536,3.537-3.536h13.532
		c1.95,0,3.537,1.587,3.537,3.536C63.908,102.917,62.322,104.505,60.372,104.505z M46.84,99.43c-0.848,0-1.537,0.688-1.537,1.536
		c0,0.849,0.689,1.538,1.537,1.538h13.532c0.847,0,1.537-0.689,1.537-1.538c0-0.848-0.689-1.536-1.537-1.536H46.84z"/>
</g>
<g>
	<path fill="#4D4D4D" d="M65.785,87.604H46.839c-1.401,0-2.537,1.137-2.537,2.537c0,1.401,1.136,2.538,2.537,2.538h18.946
		c1.4,0,2.535-1.137,2.535-2.538C68.32,88.741,67.186,87.604,65.785,87.604"/>
</g>
<g>
	<path fill="#FFFFFF" d="M65.785,93.68H46.839c-1.95,0-3.537-1.587-3.537-3.538c0-1.95,1.586-3.537,3.537-3.537h18.946
		c1.949,0,3.535,1.587,3.535,3.537C69.32,92.092,67.734,93.68,65.785,93.68z M46.839,88.604c-0.847,0-1.537,0.688-1.537,1.537
		c0,0.848,0.689,1.538,1.537,1.538h18.946c0.847,0,1.535-0.69,1.535-1.538c0-0.849-0.688-1.537-1.535-1.537H46.839z"/>
</g>
<g>
	<path fill="#4D4D4D" d="M90.143,38.89H46.839c-1.401,0-2.537,1.136-2.537,2.537c0,1.4,1.136,2.537,2.537,2.537h43.304
		c1.399,0,2.537-1.137,2.537-2.537C92.68,40.026,91.543,38.89,90.143,38.89"/>
</g>
<g>
	<path fill="#FFFFFF" d="M90.143,44.965H46.839c-1.95,0-3.537-1.587-3.537-3.537s1.587-3.537,3.537-3.537h43.304
		c1.949,0,3.537,1.587,3.537,3.537C93.68,43.377,92.093,44.965,90.143,44.965z M46.839,39.89c-0.848,0-1.537,0.688-1.537,1.537
		c0,0.848,0.689,1.537,1.537,1.537h43.304c0.848,0,1.537-0.689,1.537-1.537c0-0.849-0.689-1.537-1.537-1.537H46.839z"/>
</g>
<g>
	<path fill="#4D4D4D" d="M79.316,28.063H46.84c-1.401,0-2.537,1.136-2.537,2.537s1.136,2.538,2.537,2.538h32.477
		c1.401,0,2.537-1.137,2.537-2.538S80.718,28.063,79.316,28.063"/>
</g>
<g>
	<path fill="#FFFFFF" d="M79.316,34.139H46.84c-1.95,0-3.537-1.587-3.537-3.538c0-1.95,1.587-3.537,3.537-3.537h32.477
		c1.951,0,3.537,1.587,3.537,3.537S81.268,34.139,79.316,34.139z M46.84,29.063c-0.848,0-1.537,0.688-1.537,1.537
		c0,0.848,0.689,1.538,1.537,1.538h32.477c0.849,0,1.537-0.69,1.537-1.538c0-0.849-0.688-1.537-1.537-1.537H46.84z"/>
</g>
<g>
	<path fill="#4D4D4D" d="M100.968,1H8.95C4.567,1,1,4.565,1,8.949v113.67c0,4.384,3.566,7.949,7.95,7.949h46.009
		c1.401,0,2.538-1.136,2.538-2.537c0-1.4-1.136-2.537-2.538-2.537H8.95c-1.585,0-2.875-1.29-2.875-2.875V8.949
		c0-1.586,1.29-2.876,2.875-2.876h92.018c1.587,0,2.876,1.29,2.876,2.876v63.899c0,1.4,1.137,2.537,2.537,2.537
		s2.537-1.137,2.537-2.537V8.949C108.918,4.565,105.352,1,100.968,1"/>
</g>
<g>
	<path fill="#FFFFFF" d="M54.959,131.568H8.95c-4.935,0-8.95-4.015-8.95-8.949V8.949C0,4.015,4.015,0,8.95,0h92.018
		c4.935,0,8.95,4.016,8.95,8.949v63.899c0,1.949-1.587,3.537-3.537,3.537c-1.949,0-3.537-1.588-3.537-3.537V8.949
		c0-1.034-0.842-1.876-1.876-1.876H8.95c-1.034,0-1.875,0.842-1.875,1.876v113.67c0,1.034,0.841,1.875,1.875,1.875h46.009
		c1.951,0,3.538,1.587,3.538,3.537S56.91,131.568,54.959,131.568z M8.95,2C5.118,2,2,5.117,2,8.949v113.67
		c0,3.832,3.118,6.949,6.95,6.949h46.009c0.848,0,1.538-0.689,1.538-1.537s-0.69-1.537-1.538-1.537H8.95
		c-2.137,0-3.875-1.738-3.875-3.875V8.949c0-2.137,1.738-3.876,3.875-3.876h92.018c2.138,0,3.876,1.739,3.876,3.876v63.899
		c0,0.848,0.689,1.537,1.537,1.537s1.537-0.689,1.537-1.537V8.949c0-3.832-3.118-6.949-6.95-6.949H8.95z"/>
</g>
<g>
	<path fill="#4D4D4D" d="M96,139.443c-14.336,0-26-11.664-26-26s11.664-26,26-26s26,11.664,26,26S110.336,139.443,96,139.443z
		 M96,90.443c-12.682,0-23,10.318-23,23s10.318,23,23,23s23-10.318,23-23S108.682,90.443,96,90.443z"/>
</g>
<g>
	<path fill="#4D4D4D" d="M93.537,123.146c-0.402,0-0.788-0.162-1.07-0.449l-8.27-8.422c-0.581-0.591-0.572-1.541,0.02-2.121
		c0.59-0.581,1.541-0.573,2.121,0.02l7.199,7.332l13.805-14.065c0.579-0.592,1.53-0.602,2.121-0.021c0.592,0.58,0.6,1.53,0.02,2.121
		l-14.875,15.156C94.326,122.984,93.939,123.146,93.537,123.146z"/>
</g>
</svg>
