<?xml version="1.0" encoding="UTF-8"?>
<!-- Generator: Adobe Illustrator 16.0.3, SVG Export Plug-In . SVG Version: 6.00 Build 0)  -->
<!DOCTYPE svg PUBLIC "-//W3C//DTD SVG 1.1//EN" "http://www.w3.org/Graphics/SVG/1.1/DTD/svg11.dtd">
<svg version="1.1" id="Layer_1" xmlns:x="http://ns.adobe.com/Extensibility/1.0/" xmlns:i="http://ns.adobe.com/AdobeIllustrator/10.0/" xmlns:graph="http://ns.adobe.com/Graphs/1.0/" xmlns="http://www.w3.org/2000/svg" xmlns:xlink="http://www.w3.org/1999/xlink" x="0px" y="0px" width="211px" height="149.091px" viewBox="0 0 211 149.091" enable-background="new 0 0 211 149.091" xml:space="preserve">
<metadata>
	<sfw xmlns="http://ns.adobe.com/SaveForWeb/1.0/">
		<slices/>
		<sliceSourceBounds height="910.106" width="795.78" y="-956" x="58.882" bottomLeftOrigin="true"/>
	</sfw>
</metadata>
<g>
	<g>
		<path fill="#FFFFFF" d="M209.104,105.738c-2.764-19.478-16.771-34.483-37.662-34.483c-20.896,0-34.9,15.006-37.664,34.483    c-0.25,1.042-0.396,2.124-0.396,3.239c0,0.253,0.025,0.5,0.039,0.749c0.404,7.521,6.818,13.503,14.693,13.503h46.654    c7.875,0,14.291-5.981,14.693-13.503c0.014-0.249,0.039-0.496,0.039-0.749C209.5,107.862,209.354,106.78,209.104,105.738"/>
	</g>
	<g>
		<path fill="#4D4D4D" d="M194.768,124.729h-46.654c-8.63,0-15.741-6.555-16.191-14.922l-0.014-0.211    c-0.015-0.205-0.027-0.41-0.027-0.619c0-1.148,0.142-2.332,0.421-3.519c3.061-21.358,18.781-35.704,39.14-35.704    c20.356,0,36.077,14.346,39.138,35.704c0.279,1.188,0.421,2.371,0.421,3.519c0,0.208-0.013,0.414-0.027,0.619l-0.014,0.212    C210.511,118.175,203.399,124.729,194.768,124.729z M171.441,72.755c-19.116,0-33.317,13.029-36.179,33.194    c-0.007,0.046-0.016,0.093-0.026,0.139c-0.236,0.982-0.355,1.954-0.355,2.889c0,0.138,0.011,0.274,0.021,0.409l0.017,0.258    c0.364,6.777,6.16,12.085,13.195,12.085h46.654c7.037,0,12.833-5.308,13.195-12.083l0.017-0.26    c0.01-0.135,0.021-0.271,0.021-0.409c0-0.935-0.119-1.907-0.355-2.889c-0.011-0.046-0.02-0.093-0.026-0.139    C204.757,85.784,190.557,72.755,171.441,72.755z"/>
	</g>
	<g>
		<path fill="#FFFFFF" d="M194.611,48.616c0,12.565-10.375,22.755-23.17,22.755c-12.797,0-23.17-10.189-23.17-22.755    c0-12.566,10.373-22.755,23.17-22.755C184.236,25.861,194.611,36.05,194.611,48.616"/>
	</g>
	<g>
		<path fill="#4D4D4D" d="M171.441,72.871c-13.604,0-24.67-10.881-24.67-24.255s11.066-24.255,24.67-24.255    s24.67,10.881,24.67,24.255S185.045,72.871,171.441,72.871z M171.441,27.361c-11.949,0-21.67,9.535-21.67,21.255    s9.721,21.255,21.67,21.255s21.67-9.535,21.67-21.255S183.391,27.361,171.441,27.361z"/>
	</g>
	<g>
		<path fill="#FFFFFF" d="M77.221,105.738c-2.763-19.478-16.77-34.483-37.66-34.483c-20.897,0-34.9,15.006-37.664,34.483    c-0.252,1.042-0.396,2.124-0.396,3.239c0,0.253,0.023,0.5,0.039,0.749c0.404,7.521,6.816,13.503,14.691,13.503h46.656    c7.875,0,14.289-5.981,14.693-13.503c0.014-0.249,0.038-0.496,0.038-0.749C77.618,107.862,77.473,106.78,77.221,105.738"/>
	</g>
	<g>
		<path fill="#4D4D4D" d="M62.887,124.729H16.23c-8.628,0-15.739-6.555-16.189-14.922l-0.011-0.161    C0.015,109.424,0,109.203,0,108.978c0-1.157,0.142-2.341,0.422-3.521c3.06-21.358,18.78-35.702,39.139-35.702    c20.356,0,36.076,14.344,39.135,35.702c0.281,1.183,0.423,2.366,0.423,3.521c0,0.21-0.013,0.417-0.027,0.624l-0.013,0.208    C78.628,118.175,71.517,124.729,62.887,124.729z M39.561,72.755c-19.117,0-33.317,13.029-36.179,33.194    c-0.007,0.047-0.016,0.095-0.027,0.142C3.119,107.063,3,108.035,3,108.978c0,0.154,0.012,0.305,0.022,0.457l0.014,0.199    c0.365,6.789,6.16,12.097,13.194,12.097h46.656c7.035,0,12.831-5.308,13.195-12.083l0.016-0.249    c0.01-0.139,0.021-0.278,0.021-0.42c0-0.94-0.119-1.911-0.355-2.887c-0.012-0.047-0.021-0.094-0.027-0.142    C72.875,85.784,58.676,72.755,39.561,72.755z"/>
	</g>
	<g>
		<path fill="#FFFFFF" d="M62.729,48.616c0,12.565-10.375,22.755-23.171,22.755c-12.795,0-23.17-10.189-23.17-22.755    c0-12.566,10.375-22.755,23.17-22.755C52.354,25.861,62.729,36.05,62.729,48.616"/>
	</g>
	<g>
		<path fill="#4D4D4D" d="M39.559,72.871c-13.604,0-24.67-10.881-24.67-24.255s11.066-24.255,24.67-24.255    s24.671,10.881,24.671,24.255S53.162,72.871,39.559,72.871z M39.559,27.361c-11.949,0-21.67,9.535-21.67,21.255    s9.721,21.255,21.67,21.255s21.671-9.535,21.671-21.255S51.508,27.361,39.559,27.361z"/>
	</g>
	<g>
		<path fill="#FFFFFF" d="M162.902,121.119C158.746,91.64,137.67,68.93,106.238,68.93c-31.439,0-52.508,22.71-56.668,52.189    c-0.376,1.577-0.594,3.214-0.594,4.901c0,0.384,0.036,0.757,0.059,1.134c0.607,11.383,10.256,20.437,22.104,20.437h70.196    c11.848,0,21.5-9.054,22.107-20.437c0.02-0.377,0.057-0.75,0.057-1.134C163.5,124.333,163.279,122.696,162.902,121.119"/>
	</g>
	<g>
		<path fill="#4D4D4D" d="M141.336,149.091H71.14c-12.581,0-22.948-9.601-23.603-21.856l-0.019-0.286    c-0.021-0.307-0.042-0.615-0.042-0.928c0-1.694,0.208-3.437,0.618-5.18c4.538-31.949,27.896-53.411,58.144-53.411    c30.249,0,53.605,21.461,58.14,53.411c0.413,1.75,0.622,3.492,0.622,5.18c0,0.295-0.019,0.584-0.038,0.873l-0.021,0.339    C164.287,139.49,153.919,149.091,141.336,149.091z M106.238,70.43c-28.71,0-50.887,20.455-55.183,50.899    c-0.007,0.046-0.016,0.093-0.026,0.138c-0.367,1.539-0.553,3.071-0.553,4.554c0,0.243,0.018,0.481,0.034,0.72l0.021,0.325    c0.569,10.673,9.621,19.026,20.607,19.026h70.196c10.987,0,20.04-8.353,20.609-19.017l0.023-0.382    c0.016-0.222,0.031-0.445,0.031-0.672c0-1.476-0.188-3.007-0.557-4.553c-0.011-0.046-0.02-0.092-0.026-0.139    C157.125,90.884,134.95,70.43,106.238,70.43z"/>
	</g>
	<g>
		<path fill="#FFFFFF" d="M141.383,36.029c0,19.068-15.738,34.528-35.145,34.528c-19.41,0-35.146-15.46-35.146-34.528    C71.093,16.96,86.828,1.5,106.238,1.5C125.645,1.5,141.383,16.96,141.383,36.029"/>
	</g>
	<g>
		<path fill="#4D4D4D" d="M106.238,72.058c-20.206,0-36.646-16.162-36.646-36.028C69.593,16.163,86.032,0,106.238,0    s36.645,16.163,36.645,36.029C142.883,55.896,126.444,72.058,106.238,72.058z M106.238,3C87.687,3,72.593,17.817,72.593,36.029    c0,18.212,15.094,33.028,33.646,33.028s33.645-14.816,33.645-33.028C139.883,17.817,124.79,3,106.238,3z"/>
	</g>
	<g>
		<path fill="#4D4D4D" d="M94.595,39.773c-0.478,0-0.938-0.229-1.226-0.635L83.994,25.86l-9.271-0.715    c-0.826-0.064-1.444-0.785-1.38-1.611c0.063-0.826,0.787-1.45,1.61-1.38l9.974,0.77c0.445,0.034,0.853,0.266,1.11,0.63    l9.146,12.954l41.992-13.517c0.79-0.255,1.635,0.179,1.888,0.968c0.254,0.789-0.18,1.633-0.968,1.887L95.055,39.701    C94.903,39.75,94.748,39.773,94.595,39.773z"/>
	</g>
</g>
</svg>