<?xml version="1.0" encoding="utf-8"?>
<!-- Generator: Adobe Illustrator 16.0.3, SVG Export Plug-In . SVG Version: 6.00 Build 0)  -->
<!DOCTYPE svg PUBLIC "-//W3C//DTD SVG 1.1//EN" "http://www.w3.org/Graphics/SVG/1.1/DTD/svg11.dtd" [
	<!ENTITY ns_extend "http://ns.adobe.com/Extensibility/1.0/">
	<!ENTITY ns_ai "http://ns.adobe.com/AdobeIllustrator/10.0/">
	<!ENTITY ns_graphs "http://ns.adobe.com/Graphs/1.0/">
	<!ENTITY ns_vars "http://ns.adobe.com/Variables/1.0/">
	<!ENTITY ns_imrep "http://ns.adobe.com/ImageReplacement/1.0/">
	<!ENTITY ns_sfw "http://ns.adobe.com/SaveForWeb/1.0/">
	<!ENTITY ns_custom "http://ns.adobe.com/GenericCustomNamespace/1.0/">
	<!ENTITY ns_adobe_xpath "http://ns.adobe.com/XPath/1.0/">
]>
<svg version="1.1" id="Layer_1" xmlns:x="&ns_extend;" xmlns:i="&ns_ai;" xmlns:graph="&ns_graphs;"
	 xmlns="http://www.w3.org/2000/svg" xmlns:xlink="http://www.w3.org/1999/xlink" x="0px" y="0px" width="117.82px"
	 height="149.465px" viewBox="3 5.535 117.82 149.465" enable-background="new 3 5.535 117.82 149.465" xml:space="preserve">
<metadata>
	<sfw  xmlns="&ns_sfw;">
		<slices></slices>
		<sliceSourceBounds  height="149.466" width="117.82" y="283.047" x="383.5" bottomLeftOrigin="true"></sliceSourceBounds>
	</sfw>
</metadata>
<g>
	<g>
		<defs>
			<rect id="SVGID_1_" x="3" y="5.535" width="117.82" height="149.465"/>
		</defs>
		<clipPath id="SVGID_2_">
			<use xlink:href="#SVGID_1_"  overflow="visible"/>
		</clipPath>
		<g clip-path="url(#SVGID_2_)">
			<path fill="#FFFFFF" d="M118.492,126.884c-4.15-29.383-25.195-52.021-56.582-52.021c-31.395,0-52.433,22.638-56.586,52.021
				c-0.377,1.571-0.594,3.204-0.594,4.886c0,0.382,0.036,0.755,0.058,1.13c0.607,11.346,10.242,20.37,22.073,20.37h70.095
				c11.831,0,21.47-9.024,22.076-20.37c0.019-0.375,0.058-0.748,0.058-1.13C119.09,130.088,118.87,128.455,118.492,126.884"/>
		</g>
		<g clip-path="url(#SVGID_2_)">
			<path fill="#4D4D4D" d="M96.956,155H26.861c-12.686,0-23.141-9.667-23.801-22.008l-0.019-0.284C3.02,132.398,3,132.086,3,131.77
				c0-1.709,0.209-3.461,0.622-5.208c4.553-31.96,27.967-53.429,58.288-53.429c30.322,0,53.734,21.468,58.284,53.428
				c0.415,1.754,0.626,3.506,0.626,5.209c0,0.291-0.019,0.577-0.038,0.863l-0.021,0.353C120.101,145.333,109.645,155,96.956,155z
				 M61.91,76.594c-28.548,0-50.6,20.308-54.873,50.532c-0.008,0.055-0.018,0.108-0.031,0.161c-0.362,1.511-0.546,3.019-0.546,4.482
				c0,0.236,0.018,0.469,0.033,0.701l0.021,0.327c0.563,10.513,9.5,18.741,20.346,18.741h70.095
				c10.849,0,19.787-8.229,20.348-18.732l0.026-0.41c0.014-0.208,0.029-0.416,0.029-0.627c0-1.457-0.185-2.965-0.55-4.481
				c-0.013-0.054-0.023-0.107-0.031-0.162C112.51,96.902,90.459,76.594,61.91,76.594z"/>
		</g>
		<g clip-path="url(#SVGID_2_)">
			<path fill="#FFFFFF" d="M96.917,41.655c0,18.991-15.676,34.389-35.008,34.389c-19.333,0-35.006-15.397-35.006-34.389
				c0-18.992,15.673-34.39,35.006-34.39C81.241,7.265,96.917,22.662,96.917,41.655"/>
		</g>
		<g clip-path="url(#SVGID_2_)">
			<path fill="#4D4D4D" d="M61.909,77.774c-20.257,0-36.737-16.203-36.737-36.119c0-19.917,16.48-36.12,36.737-36.12
				c20.258,0,36.738,16.204,36.738,36.12C98.647,61.571,82.167,77.774,61.909,77.774z M61.909,8.995
				c-18.348,0-33.276,14.651-33.276,32.659c0,18.008,14.928,32.658,33.276,32.658c18.349,0,33.277-14.65,33.277-32.658
				C95.187,23.646,80.258,8.995,61.909,8.995z"/>
		</g>
	</g>
	<g>
		<polyline fill="#FFFFFF" points="30.658,29.47 40.585,30.218 50.321,43.678 93.162,30.218 		"/>
	</g>
	<g>
		<path fill="#4D4D4D" d="M50.321,45.408c-0.545,0-1.071-0.258-1.402-0.716l-9.265-12.809l-9.125-0.688
			c-0.953-0.072-1.667-0.903-1.596-1.855c0.072-0.953,0.915-1.668,1.855-1.596l9.927,0.748c0.508,0.038,0.974,0.298,1.272,0.711
			l9.005,12.449l41.651-13.086c0.91-0.285,1.883,0.22,2.169,1.132c0.287,0.912-0.22,1.883-1.132,2.169l-42.841,13.46
			C50.668,45.383,50.494,45.408,50.321,45.408z"/>
	</g>
</g>
</svg>
